HIERARCHY
ROOT Hips
{
 OFFSET 0.000000 0.000000 0.000000
 CHANNELS 6 Xposition Yposition Zposition Yrotation Xrotation Zrotation
 JOINT Chest
 {
  OFFSET 0.000000 9.585900 0.002600
  CHANNELS 3 Yrotation Xrotation Zrotation
  JOINT Chest2
  {
   OFFSET 0.000000 9.601200 -0.005300
   CHANNELS 3 Yrotation Xrotation Zrotation
   JOINT Chest3
   {
    OFFSET 0.000000 9.561800 0.000000
    CHANNELS 3 Yrotation Xrotation Zrotation
    JOINT Chest4
    {
     OFFSET 0.000000 9.552100 0.000000
     CHANNELS 3 Yrotation Xrotation Zrotation
     JOINT Neck
     {
      OFFSET 0.000000 14.453000 0.000000
      CHANNELS 3 Yrotation Xrotation Zrotation
      JOINT Head
      {
       OFFSET 0.000000 8.936500 -0.011300
       CHANNELS 3 Yrotation Xrotation Zrotation
       End Site
       {
        OFFSET 0.000000 17.073600 -0.006000
       }
      }
     }
     JOINT RightCollar
     {
      OFFSET -2.921100 9.558500 0.000000
      CHANNELS 3 Yrotation Xrotation Zrotation
      JOINT RightShoulder
      {
       OFFSET -13.519700 0.000000 0.000000
       CHANNELS 3 Yrotation Xrotation Zrotation
       JOINT RightElbow
       {
        OFFSET 0.000000 -29.696600 0.000000
        CHANNELS 3 Yrotation Xrotation Zrotation
        JOINT RightWrist
        {
         OFFSET 0.000000 -24.004700 0.000000
         CHANNELS 3 Yrotation Xrotation Zrotation
         End Site
         {
          OFFSET 0.000000 -17.728500 0.000000
         }
        }
       }
      }
     }
     JOINT LeftCollar
     {
      OFFSET 2.921100 9.558500 0.000000
      CHANNELS 3 Yrotation Xrotation Zrotation
      JOINT LeftShoulder
      {
       OFFSET 13.519700 0.000000 0.000000
       CHANNELS 3 Yrotation Xrotation Zrotation
       JOINT LeftElbow
       {
        OFFSET 0.000000 -29.696600 0.000000
        CHANNELS 3 Yrotation Xrotation Zrotation
        JOINT LeftWrist
        {
         OFFSET 0.000000 -24.004700 0.000000
         CHANNELS 3 Yrotation Xrotation Zrotation
         End Site
         {
          OFFSET 0.000000 -17.728500 0.000000
         }
        }
       }
      }
     }
    }
   }
  }
 }
 JOINT RightHip
 {
  OFFSET -7.771700 -0.012900 -0.001300
  CHANNELS 3 Yrotation Xrotation Zrotation
  JOINT RightKnee
  {
   OFFSET 0.000000 -40.869800 0.001200
   CHANNELS 3 Yrotation Xrotation Zrotation
   JOINT RightAnkle
   {
    OFFSET 0.000000 -39.717900 0.002100
    CHANNELS 3 Yrotation Xrotation Zrotation
    JOINT RightToe
    {
     OFFSET 0.000000 -4.965400 11.033500
     CHANNELS 3 Yrotation Xrotation Zrotation
     End Site
     {
      OFFSET 0.000000 -1.423100 5.872300
     }
    }
   }
  }
 }
 JOINT LeftHip
 {
  OFFSET 7.771700 -0.012900 -0.001300
  CHANNELS 3 Yrotation Xrotation Zrotation
  JOINT LeftKnee
  {
   OFFSET 0.000000 -40.869800 0.001200
   CHANNELS 3 Yrotation Xrotation Zrotation
   JOINT LeftAnkle
   {
    OFFSET 0.000000 -39.717900 0.002100
    CHANNELS 3 Yrotation Xrotation Zrotation
    JOINT LeftToe
    {
     OFFSET 0.000000 -4.965400 11.033500
     CHANNELS 3 Yrotation Xrotation Zrotation
     End Site
     {
      OFFSET 0.000000 -1.423100 5.872300
     }
    }
   }
  }
 }
}
MOTION
Frames: 16
Frame Time: 0.008333
0.000000 85.388000 0.000000 0.000000 -5.767877 0.000000 0.000000 11.653817 0.000000 0.000000 -5.885947 0.000000 0.000000 -0.000000 0.000000 0.000000 -0.000000 0.000000 0.000000 12.528835 0.000000 0.000000 0.711642 0.000000 0.000000 -0.000000 0.000000 0.000000 0.000000 -90.000000 0.000000 -2.309062 0.000000 0.000000 2.309062 0.000000 0.000000 -0.000000 0.000000 0.000000 -0.000000 90.000000 0.000000 -2.309062 0.000000 0.000000 2.309062 0.000000 0.000000 8.520406 0.000000 0.000000 1.905762 0.000000 -0.000000 -4.658285 0.000000 0.000000 -0.000000 0.000000 0.000000 8.520406 0.000000 0.000000 1.905762 0.000000 -0.000000 -4.658285 0.000000 0.000000 -0.000000 0.000000
-14.798004 57.164266 61.176877 179.574266 -34.055684 -1.328663 3.558174 20.307322 4.745797 0.343672 2.679510 0.344910 0.587018 4.390957 0.567436 2.669125 17.581554 2.631049 -2.380287 12.820078 -1.854235 -3.733295 -12.077021 -2.536729 3.678123 -3.287626 -0.813107 15.988501 -19.525819 -20.027672 146.575599 -77.687693 -106.245640 14.370865 -15.563031 -40.995551 -7.573156 -4.060082 -2.705229 -2.693273 -10.441915 -1.284832 33.556454 -21.686217 -74.909396 6.936921 -8.479942 28.908177 12.621428 -37.538995 -6.200390 -3.803843 66.828784 -2.863513 4.745998 6.629649 8.895651 -0.061415 0.148144 -0.031202 -10.352224 -44.885082 4.621789 26.558489 66.550584 25.403144 -14.406969 31.138284 -1.191210 -0.116991 -15.787380 -5.917713
-14.795807 57.164931 61.176833 179.563003 -34.053930 -1.324427 3.551024 20.298241 4.746635 0.350306 2.683188 0.343065 0.590589 4.389121 0.565808 2.671406 17.584193 2.630377 -2.367994 12.795900 -1.848960 -3.710631 -12.131399 -2.533037 3.674394 -3.276555 -0.816038 15.985354 -19.533553 -20.027743 146.617225 -77.679522 -106.286639 14.364378 -15.560496 -40.988970 -7.570772 -4.054599 -2.705394 -2.705254 -10.441999 -1.284888 33.566173 -21.694256 -74.909630 6.936760 -8.476673 28.909563 12.624628 -37.542061 -6.194574 -3.803115 66.827067 -2.864158 4.744473 6.633326 8.894040 -0.059925 0.147154 -0.031960 -10.357645 -44.883908 4.634752 26.569646 66.549832 25.408639 -14.415332 31.133474 -1.195170 -0.114371 -15.784604 -5.919704
-14.793755 57.165742 61.176555 179.553507 -34.051804 -1.318795 3.553404 20.294629 4.745956 0.350342 2.682551 0.343065 0.579127 4.378365 0.570919 2.680713 17.591221 2.627769 -2.346047 12.723132 -1.836666 -3.693351 -12.152616 -2.543353 3.673015 -3.263796 -0.816600 15.983952 -19.541583 -20.036725 146.646524 -77.669977 -106.309037 14.355988 -15.560000 -40.988430 -7.565385 -4.046133 -2.711495 -2.719794 -10.439229 -1.275656 33.579310 -21.702877 -74.920087 6.930010 -8.471767 28.916266 12.628006 -37.543899 -6.189999 -3.804684 66.825150 -2.869848 4.745240 6.631580 8.891699 -0.066985 0.150770 -0.028825 -10.362966 -44.883048 4.643911 26.581414 66.549063 25.414037 -14.416805 31.126918 -1.193819 -0.117280 -15.780270 -5.923062
-14.791622 57.166542 61.176197 179.551898 -34.047622 -1.317448 3.549914 20.288566 4.745200 0.350183 2.681597 0.343049 0.579630 4.373450 0.571497 2.672922 17.574220 2.631166 -2.329437 12.698139 -1.839616 -3.670895 -12.219631 -2.543269 3.671179 -3.235750 -0.812831 16.001009 -19.541307 -20.049469 146.645985 -77.658717 -106.311431 14.364358 -15.567115 -41.006765 -7.550500 -4.017349 -2.719907 -2.731652 -10.441589 -1.275064 33.582790 -21.712489 -74.926657 6.937795 -8.472583 28.920573 12.627623 -37.546956 -6.187733 -3.807069 66.823667 -2.874304 4.746026 6.629732 8.891003 -0.058013 0.152525 -0.028291 -10.374374 -44.883135 4.657595 26.578089 66.550374 25.400943 -14.417764 31.115382 -1.191893 -0.120407 -15.770188 -5.924036
-14.791361 57.167608 61.175192 179.551256 -34.045028 -1.305798 3.545631 20.284923 4.735056 0.349817 2.679297 0.342940 0.579035 4.373708 0.570368 2.669740 17.566417 2.632666 -2.317711 12.656349 -1.837443 -3.649528 -12.297140 -2.543281 3.670781 -3.223489 -0.812230 16.008337 -19.540278 -20.053757 146.646056 -77.647909 -106.314052 14.355816 -15.565025 -41.008524 -7.548609 -4.002787 -2.724395 -2.736063 -10.444100 -1.273490 33.584658 -21.722396 -74.930849 6.929115 -8.470892 28.927935 12.634435 -37.547752 -6.198786 -3.791056 66.827398 -2.863866 4.738231 6.626406 8.892357 -0.055511 0.152256 -0.028411 -10.378686 -44.881058 4.655061 26.579685 66.546943 25.390809 -14.422250 31.105224 -1.186492 -0.115866 -15.759223 -5.931838
-14.788786 57.168839 61.173805 179.545916 -34.042859 -1.306630 3.543710 20.283284 4.739013 0.354370 2.674786 0.341953 0.579955 4.374127 0.569574 2.666057 17.560822 2.634071 -2.307027 12.612211 -1.835205 -3.629311 -12.383806 -2.542355 3.674000 -3.213402 -0.814451 16.012175 -19.539822 -20.055053 146.643583 -77.642727 -106.313431 14.365140 -15.567758 -41.014993 -7.544537 -3.992955 -2.737240 -2.742205 -10.442816 -1.265336 33.586777 -21.731184 -74.932751 6.923878 -8.469296 28.929235 12.638301 -37.549074 -6.191989 -3.780286 66.825679 -2.855711 4.737346 6.624953 8.893097 -0.063837 0.152109 -0.026776 -10.379513 -44.881495 4.662613 26.585057 66.550966 25.395784 -14.413802 31.093935 -1.173450 -0.120370 -15.752124 -5.940684
-14.786144 57.169710 61.172764 179.530574 -34.035906 -1.304270 3.555033 20.277608 4.745088 0.352095 2.674196 0.341592 0.579582 4.371857 0.569468 2.669882 17.560931 2.633094 -2.299718 12.558299 -1.829055 -3.612267 -12.478245 -2.538553 3.669946 -3.209034 -0.812414 16.023122 -19.540246 -20.056952 146.634594 -77.634779 -106.307885 14.365852 -15.565255 -41.012137 -7.537909 -3.994273 -2.743272 -2.751413 -10.437132 -1.261904 33.588984 -21.741755 -74.935507 6.917814 -8.465073 28.929745 12.648417 -37.557163 -6.183675 -3.782872 66.824122 -2.856076 4.728625 6.626671 8.886825 -0.059161 0.152776 -0.023797 -10.375680 -44.884337 4.675542 26.589230 66.554004 25.401253 -14.413742 31.075637 -1.173385 -0.119155 -15.739271 -5.942904
-14.787516 57.171162 61.170451 179.525571 -34.035364 -1.285932 3.552422 20.278538 4.728611 0.344672 2.675253 0.345379 0.579595 4.368785 0.568346 2.671787 17.559191 2.630714 -2.291364 12.502192 -1.824710 -3.599233 -12.580108 -2.531298 3.665375 -3.203234 -0.817225 16.045280 -19.540865 -20.050564 146.564509 -77.621029 -106.243049 14.358162 -15.561228 -41.023395 -7.530461 -3.988537 -2.752294 -2.758284 -10.436870 -1.257386 33.590993 -21.750028 -74.937260 6.912725 -8.463724 28.932042 12.664407 -37.555299 -6.203759 -3.787072 66.829556 -2.861873 4.735780 6.621183 8.887119 -0.058838 0.152469 -0.022774 -10.351093 -44.879671 4.645924 26.587125 66.546575 25.403047 -14.398201 31.061628 -1.167368 -0.119296 -15.723756 -5.945705
-14.787917 57.172281 61.168528 179.523604 -34.030739 -1.277331 3.545673 20.276709 4.721443 0.348005 2.673609 0.343531 0.580051 4.368248 0.567667 2.669060 17.554833 2.630803 -2.285161 12.442323 -1.817538 -3.589377 -12.689314 -2.521604 3.666465 -3.198084 -0.818936 16.050528 -19.542294 -20.047825 146.533264 -77.620799 -106.211839 14.356005 -15.562384 -41.027890 -7.525235 -3.978146 -2.754076 -2.763511 -10.442573 -1.258616 33.590299 -21.750418 -74.931768 6.916938 -8.457063 28.933771 12.672496 -37.558895 -6.210969 -3.803239 66.833241 -2.880692 4.735610 6.618935 8.887792 -0.059959 0.151490 -0.022517 -10.339738 -44.884151 4.632572 26.591616 66.544807 25.409350 -14.392292 31.063551 -1.160573 -0.122810 -15.724897 -5.949083
-14.788985 57.171969 61.168657 179.532662 -34.010256 -1.272780 3.532589 20.263158 4.715856 0.348230 2.667756 0.338132 0.578372 4.365867 0.568362 2.666429 17.550685 2.630247 -2.279876 12.380838 -1.809775 -3.583102 -12.804362 -2.510229 3.670909 -3.188812 -0.821684 16.052541 -19.545736 -20.047348 146.508392 -77.623486 -106.187524 14.350204 -15.562019 -41.023007 -7.517888 -3.964916 -2.757490 -2.766289 -10.451428 -1.261551 33.583053 -21.748346 -74.921944 6.922361 -8.462126 28.933803 12.676544 -37.577791 -6.228137 -3.810770 66.836596 -2.891897 4.746686 6.616194 8.889640 -0.060076 0.150718 -0.022567 -10.339916 -44.906282 4.622051 26.563239 66.545394 25.383582 -14.376490 31.074351 -1.158515 -0.123926 -15.728668 -5.949458
-14.789550 57.172767 61.167184 179.539346 -34.001161 -1.270914 3.521469 20.257640 4.712105 0.347251 2.668167 0.341908 0.580727 4.362376 0.564210 2.656614 17.539141 2.632336 -2.274258 12.322319 -1.807598 -3.580617 -12.923376 -2.497504 3.674923 -3.176314 -0.826170 16.059831 -19.544627 -20.050828 146.496965 -77.625053 -106.176931 14.350994 -15.564157 -41.022177 -7.505582 -3.950294 -2.769985 -2.767825 -10.455922 -1.261561 33.576574 -21.746174 -74.915801 6.926797 -8.466273 28.934282 12.679079 -37.585988 -6.235815 -3.823249 66.840532 -2.906200 4.749373 6.617203 8.886906 -0.061181 0.146483 -0.018172 -10.340862 -44.916314 4.616540 26.560939 66.543573 25.383478 -14.398415 31.083746 -1.157782 -0.128528 -15.737314 -5.955152
-14.789805 57.173436 61.165940 179.539170 -33.990545 -1.267397 3.513625 20.248839 4.707629 0.347742 2.666952 0.342040 0.583292 4.360532 0.565735 2.652354 17.536619 2.630310 -2.273787 12.255883 -1.800054 -3.582753 -13.044925 -2.482265 3.681707 -3.169440 -0.830715 16.063313 -19.545944 -20.047532 146.467450 -77.625303 -106.150858 14.351761 -15.564698 -41.014342 -7.494929 -3.941818 -2.777498 -2.770360 -10.460206 -1.259666 33.571324 -21.743765 -74.912426 6.928432 -8.469074 28.934141 12.682894 -37.596658 -6.240356 -3.831703 66.843291 -2.918450 4.754157 6.618169 8.889189 -0.064050 0.143034 -0.017632 -10.338165 -44.928100 4.613931 26.561996 66.541774 25.385888 -14.409575 31.096722 -1.157527 -0.125506 -15.745114 -5.959179
-14.790452 57.174206 61.164580 179.533472 -33.980823 -1.258096 3.511709 20.240573 4.700269 0.347607 2.666186 0.341970 0.577343 4.357848 0.566980 2.658733 17.538061 2.627750 -2.274352 12.221935 -1.795940 -3.597487 -13.200736 -2.454488 3.684568 -3.161570 -0.828514 16.077596 -19.544588 -20.061047 146.471372 -77.629227 -106.172666 14.351856 -15.560854 -41.006859 -7.487693 -3.933767 -2.781684 -2.775308 -10.458847 -1.257538 33.571313 -21.749411 -74.915512 6.929570 -8.471199 28.933281 12.685189 -37.607328 -6.239032 -3.846789 66.846403 -2.947906 4.755703 6.619193 8.894880 -0.053748 0.141213 -0.018940 -10.321525 -44.938215 4.600887 26.563098 66.537891 25.393122 -14.415807 31.107279 -1.156739 -0.125566 -15.753924 -5.961749
-14.792964 57.175068 61.162970 179.533887 -33.972391 -1.240246 3.502797 20.235321 4.683270 0.346712 2.665707 0.341510 0.577240 4.355101 0.562832 2.660470 17.535634 2.628322 -2.275859 12.190977 -1.790862 -3.620230 -13.352983 -2.422599 3.684161 -3.154674 -0.823767 16.090086 -19.540114 -20.072834 146.480683 -77.628259 -106.191945 14.347992 -15.559450 -41.005473 -7.485172 -3.925691 -2.782925 -2.769610 -10.453341 -1.258853 33.565124 -21.756129 -74.918236 6.929621 -8.472733 28.931561 12.695739 -37.614385 -6.258320 -3.849870 66.853946 -2.959181 4.748261 6.616593 8.896930 -0.049090 0.141541 -0.019592 -10.285431 -44.943241 4.565515 26.548867 66.526262 25.388513 -14.432208 31.107765 -1.163109 -0.118419 -15.750971 -5.958735
-14.793432 57.176368 61.160651 179.539456 -33.968918 -1.236526 3.494027 20.235977 4.679476 0.347269 2.663357 0.339590 0.576687 4.355009 0.564907 2.656006 17.535211 2.627116 -2.286860 12.079011 -1.774064 -3.629555 -13.423702 -2.413613 3.688508 -3.152313 -0.826872 16.102309 -19.535019 -20.083361 146.499649 -77.622277 -106.203249 14.348074 -15.549939 -41.026363 -7.478911 -3.921058 -2.788832 -2.766896 -10.454154 -1.258243 33.605705 -21.760651 -74.921445 6.922259 -8.431785 28.920971 12.693073 -37.616451 -6.259146 -3.856778 66.858517 -2.975100 4.740614 6.613614 8.899668 -0.053807 0.144172 -0.021387 -10.280852 -44.946296 4.554815 26.543682 66.525164 25.384961 -14.431572 31.112625 -1.163933 -0.116642 -15.755515 -5.958010
